<svg width="227" height="184" viewBox="0 0 227 184" fill="none" xmlns="http://www.w3.org/2000/svg">
<path d="M57.531 0C88.7852 0 115.686 23.9231 140.88 49.8727L157.289 66.7742C158.702 68.2263 158.858 69.8208 158.858 70.1931H159.505C159.23 69.1775 159.046 67.8862 159.046 66.3146V37.0334C157.766 22.6364 172.414 25.0259 172.414 25.0259V25.7658C162.79 25.7658 161.813 26.8733 161.813 37.0334V83.7675H161.074C160.326 81.6767 159.381 79.9994 157.849 78.4094L133.325 53.1032C127.049 46.6284 120.695 40.1353 114.241 34.0879V34.5428C114.608 35.6503 114.796 37.4976 114.796 38.9772V68.4376C114.796 78.5335 115.902 79.7053 125.861 79.7053V80.4451H100.965V79.7053C110.553 79.7053 112.03 78.5978 112.03 68.4376V32.0384C94.625 16.0835 76.4633 3.69461 56.9805 3.69461C25.0015 3.69461 1.84415 25.4165 1.84415 55.4146C1.84415 78.9701 23.3042 99.5616 49.9709 99.5616C70.7153 99.5616 87.4961 85.5229 87.4961 68.1619C87.4961 57.5422 80.303 48.6733 69.7015 45.0706C82.5188 45.7185 92.4735 55.9706 92.4735 68.4376C92.4735 86.6304 73.3898 101.409 49.9709 101.409C22.3867 101.409 0 80.8036 0 55.4146C0 23.2751 24.162 0 57.531 0ZM227 144.931C227 171.17 204.411 184 181.36 184C154.234 184 132.219 165.711 132.219 143.18V119.262L110.644 94.3229C108.181 91.4739 105.13 88.4318 102.162 87.8574L99.7629 87.4897V87.0256H121.984V87.4897L117.558 87.9493C114.305 88.2893 112.732 89.6679 112.732 91.4095C112.732 92.3699 113.209 93.4406 114.149 94.5067L132.311 115.562C132.985 116.344 133.692 117.869 133.788 118.425H134.247C134.338 117.869 134.848 116.206 135.444 115.47L153.606 93.119C155.56 90.7156 157.941 88.7764 159.505 88.3169V88.1331L152.404 87.4852V87.021H172.593V87.4852L169.643 87.9447C167.189 88.3674 165.019 90.5181 161.991 94.2264L139.678 121.656V144.191C139.678 164.838 158.225 181.597 181.075 181.597C202.65 181.597 224.683 168.661 224.683 145.023C224.683 125.957 208.366 110.48 188.264 110.48C172.336 110.48 159.404 122.396 159.404 137.078C159.404 148.745 166.033 158.749 176.46 161.276C163.941 161.276 153.78 150.395 153.78 136.986C153.78 121.385 169.226 108.725 188.264 108.725C209.65 108.729 227 124.946 227 144.931Z" fill="#0C2C46"/>
</svg>
